<svg xmlns="http://www.w3.org/2000/svg" width="88.667" height="35.029">
    <defs>
        <style>
            .cls-1,.cls-2{fill:gray}.cls-1{fill-rule:evenodd}
        </style>
    </defs>
    <g id="image_logo_g" transform="translate(-109.456 -571.149)">
        <g id="그룹_7903" data-name="그룹 7903" transform="translate(109.456 571.149)">
            <path id="패스_4876" data-name="패스 4876" class="cls-1" d="M319.654 590.82c.049.024.075.049.1.049 2.179 0 4.363.084 6.534-.035a4.642 4.642 0 0 0 4.579-3.878 11.284 11.284 0 0 0-.32-7.088 1.341 1.341 0 0 1-.044-.2h8.121c.085.736.211 1.469.251 2.209a21.7 21.7 0 0 1-.673 7.691 9.156 9.156 0 0 1-8.2 6.781 24.416 24.416 0 0 1-3.1.185c-4.708.018-9.417.008-14.125.008h-.579v-25.367c.129-.008.261-.025.393-.025h16.137a10.989 10.989 0 0 1 4.526.932 8.631 8.631 0 0 1 4.493 4.735h-18.1z" transform="translate(-263.011 -571.149)"/>
            <path id="패스_4877" data-name="패스 4877" class="cls-1" d="M214.7 596.623h-7.419v-.591l-.022-18.507c0-.588 0-.588-.6-.588h-7.568v-5.659h23.77v5.643H214.7z" transform="translate(-177.344 -571.247)"/>
            <path id="패스_4878" data-name="패스 4878" class="cls-1" d="M440.939 571.2h7.341v25.364h-7.341z" transform="translate(-360.507 -571.185)"/>
            <g id="그룹_7902" data-name="그룹 7902" transform="translate(0 .114)">
                <path id="패스_4879" data-name="패스 4879" class="cls-2" d="M126.593 578.4a.421.421 0 0 1-.42.422h-16.3a.42.42 0 0 1-.42-.422v-6.36a.42.42 0 0 1 .42-.422h16.3a.421.421 0 0 1 .42.422z" transform="translate(-109.456 -571.618)"/>
                <path id="패스_4880" data-name="패스 4880" class="cls-2" d="M126.593 652.826a.421.421 0 0 1-.42.42h-16.3a.42.42 0 0 1-.42-.42v-6.364a.419.419 0 0 1 .42-.42h16.3a.42.42 0 0 1 .42.42z" transform="translate(-109.456 -627.984)"/>
                <path id="패스_4881" data-name="패스 4881" class="cls-2" d="M126.593 615.828a.421.421 0 0 1-.42.42h-16.3a.419.419 0 0 1-.42-.42v-6.362a.42.42 0 0 1 .42-.421h16.3a.421.421 0 0 1 .42.421z" transform="translate(-109.456 -599.964)"/>
            </g>
        </g>
        <g id="그룹_7904" data-name="그룹 7904" transform="translate(131.328 601.533)">
            <path id="패스_4882" data-name="패스 4882" class="cls-2" d="M199.6 697.3v-.5h3.551v.5h-1.48v3.937h-.591V697.3z" transform="translate(-199.596 -696.702)"/>
            <path id="패스_4883" data-name="패스 4883" class="cls-2" d="M220.923 696.808v1.906h2.338v-1.906h.591v4.434h-.591v-2.03h-2.338v2.03h-.591v-4.434z" transform="translate(-215.301 -696.702)"/>
            <path id="패스_4884" data-name="패스 4884" class="cls-2" d="M245.979 696.808v.5H243.5v1.41h2.307v.5H243.5v1.534h2.5v.5h-3.085v-4.434z" transform="translate(-232.402 -696.702)"/>
            <path id="패스_4885" data-name="패스 4885" class="cls-2" d="M273.62 696.808h1.916a1.962 1.962 0 0 1 1.458.562 2.22 2.22 0 0 1 .557 1.63 3.059 3.059 0 0 1-.124.9 2.008 2.008 0 0 1-.38.711 1.693 1.693 0 0 1-.634.469 2.188 2.188 0 0 1-.877.165h-1.916zm.977 3.614h.871a1.217 1.217 0 0 0 .42-.071.94.94 0 0 0 .351-.23 1.1 1.1 0 0 0 .246-.416 1.854 1.854 0 0 0 .09-.612 1.746 1.746 0 0 0-.292-1.09 1.179 1.179 0 0 0-.989-.376h-.7z" transform="translate(-255.659 -696.702)"/>
            <path id="패스_4886" data-name="패스 4886" class="cls-2" d="M296.426 696.808h1l1.66 4.434h-1.014l-.336-.987h-1.661l-.348.987h-.989zm-.093 2.72h1.151l-.56-1.627h-.012z" transform="translate(-271.654 -696.702)"/>
            <path id="패스_4887" data-name="패스 4887" class="cls-2" d="M316.321 697.628h-1.331v-.82h3.638v.82H317.3v3.614h-.977z" transform="translate(-286.991 -696.702)"/>
            <path id="패스_4888" data-name="패스 4888" class="cls-2" d="M334 696.808h1l1.661 4.434h-1.014l-.336-.987h-1.661l-.348.987h-.989zm-.093 2.72h1.151l-.56-1.627h-.012z" transform="translate(-300.113 -696.702)"/>
            <path id="패스_4889" data-name="패스 4889" class="cls-2" d="M369.707 700.409a1.493 1.493 0 0 1-.56.463 1.563 1.563 0 0 1-.659.146 2.263 2.263 0 0 1-.911-.177 1.976 1.976 0 0 1-.691-.491 2.154 2.154 0 0 1-.432-.736 2.683 2.683 0 0 1-.149-.9 2.775 2.775 0 0 1 .149-.919 2.216 2.216 0 0 1 .432-.748 1.943 1.943 0 0 1 .691-.5 2.263 2.263 0 0 1 .911-.177 2.132 2.132 0 0 1 .666.106 1.925 1.925 0 0 1 .581.3 1.6 1.6 0 0 1 .423.494 1.7 1.7 0 0 1 .2.661h-.933a.92.92 0 0 0-.333-.553.969.969 0 0 0-.606-.192 1.156 1.156 0 0 0-.55.124 1.03 1.03 0 0 0-.376.335 1.5 1.5 0 0 0-.212.484 2.371 2.371 0 0 0-.068.578 2.206 2.206 0 0 0 .068.556 1.479 1.479 0 0 0 .215.475 1.042 1.042 0 0 0 .376.332 1.161 1.161 0 0 0 .547.121 1.065 1.065 0 0 0 .743-.245 1.049 1.049 0 0 0 .314-.711h-.982v-.726h1.866v2.4h-.622z" transform="translate(-325.854 -696.373)"/>
            <path id="패스_4890" data-name="패스 4890" class="cls-2" d="M390.629 696.808h2.394a1.479 1.479 0 0 1 .535.093 1.168 1.168 0 0 1 .675.655 1.242 1.242 0 0 1 .09.475 1.3 1.3 0 0 1-.171.686 1.045 1.045 0 0 1-.532.425v.012a.717.717 0 0 1 .476.363 1.658 1.658 0 0 1 .171.674c0 .017 0 .066.006.149q.019.317.053.54a.867.867 0 0 0 .127.36h-.976a1.016 1.016 0 0 1-.078-.286c-.015-.108-.028-.246-.041-.416s-.025-.277-.037-.36a.853.853 0 0 0-.215-.515.749.749 0 0 0-.526-.155h-.976v1.732h-.976zm.976 2.006h1.07a.729.729 0 0 0 .5-.152.62.62 0 0 0 .168-.481.593.593 0 0 0-.168-.466.74.74 0 0 0-.5-.149h-1.07z" transform="translate(-344.276 -696.702)"/>
            <path id="패스_4891" data-name="패스 4891" class="cls-2" d="M412.564 697.795a2.222 2.222 0 0 1 .432-.748 1.943 1.943 0 0 1 .691-.5 2.434 2.434 0 0 1 1.822 0 1.971 1.971 0 0 1 .693.5 2.151 2.151 0 0 1 .432.748 2.832 2.832 0 0 1 .146.919 2.71 2.71 0 0 1-.146.9 2.13 2.13 0 0 1-.432.736 1.985 1.985 0 0 1-.693.494 2.434 2.434 0 0 1-1.822 0 1.977 1.977 0 0 1-.691-.491 2.159 2.159 0 0 1-.432-.736 2.683 2.683 0 0 1-.149-.9 2.775 2.775 0 0 1 .149-.922zm.9 1.475a1.478 1.478 0 0 0 .214.475 1.042 1.042 0 0 0 .376.332 1.289 1.289 0 0 0 1.1 0 1.044 1.044 0 0 0 .376-.332 1.477 1.477 0 0 0 .211-.472 2.2 2.2 0 0 0 .069-.556 2.368 2.368 0 0 0-.069-.578 1.507 1.507 0 0 0-.211-.484 1.035 1.035 0 0 0-.376-.335 1.282 1.282 0 0 0-1.1 0 1.033 1.033 0 0 0-.376.335 1.507 1.507 0 0 0-.211.484 2.356 2.356 0 0 0-.068.578 2.192 2.192 0 0 0 .061.553z" transform="translate(-360.776 -696.373)"/>
            <path id="패스_4892" data-name="패스 4892" class="cls-2" d="M440.938 699.565a1.712 1.712 0 0 1-.495 1.332 2.412 2.412 0 0 1-2.8 0 1.716 1.716 0 0 1-.491-1.335v-2.757h.977v2.757a1.868 1.868 0 0 0 .034.372.748.748 0 0 0 .133.3.666.666 0 0 0 .283.211 1.191 1.191 0 0 0 .463.078.933.933 0 0 0 .715-.227 1.08 1.08 0 0 0 .205-.736v-2.757h.976z" transform="translate(-379.51 -696.702)"/>
            <path id="패스_4893" data-name="패스 4893" class="cls-2" d="M460.3 696.808h2a1.912 1.912 0 0 1 .693.115 1.244 1.244 0 0 1 .756.773 1.681 1.681 0 0 1 0 1.068 1.243 1.243 0 0 1-.756.773 1.905 1.905 0 0 1-.693.115h-1.026v1.59h-.974zm.976 2.086h.759a1.852 1.852 0 0 0 .336-.028.84.84 0 0 0 .271-.1.476.476 0 0 0 .187-.2.893.893 0 0 0 0-.67.5.5 0 0 0-.187-.205.745.745 0 0 0-.271-.1 2.066 2.066 0 0 0-.336-.025h-.759z" transform="translate(-397.039 -696.702)"/>
        </g>
    </g>
</svg>
